<svg width="36" height="36" viewBox="0 0 36 36" fill="none" xmlns="http://www.w3.org/2000/svg">
<path d="M9.7 30.6H12.2V26.2H16.6V23.7H12.2V19.3H9.7V23.7H5.3V26.2H9.7V30.6ZM20.45 28.85H30.5V26.4H20.45V28.85ZM20.45 23.5H30.5V21H20.45V23.5ZM22.3 15.35L25.35 12.3L28.4 15.35L30.2 13.55L27.15 10.5L30.2 7.45L28.4 5.65L25.35 8.7L22.3 5.65L20.5 7.45L23.55 10.5L20.5 13.55L22.3 15.35ZM6.05 11.75H15.85V9.25H6.05V11.75ZM3 36C2.2 36 1.5 35.7 0.9 35.1C0.3 34.5 0 33.8 0 33V3C0 2.2 0.3 1.5 0.9 0.9C1.5 0.3 2.2 0 3 0H33C33.8 0 34.5 0.3 35.1 0.9C35.7 1.5 36 2.2 36 3V33C36 33.8 35.7 34.5 35.1 35.1C34.5 35.7 33.8 36 33 36H3ZM3 33H33V3H3V33Z" fill="#D0E2FD"/>
</svg>
