<svg width="34" height="34" viewBox="0 0 34 34" fill="none" xmlns="http://www.w3.org/2000/svg">
<path d="M0 8.5C0 7.37283 0.447767 6.29183 1.2448 5.4948C2.04183 4.69777 3.12283 4.25 4.25 4.25H29.75C30.8772 4.25 31.9582 4.69777 32.7552 5.4948C33.5522 6.29183 34 7.37283 34 8.5V25.5C34 26.6272 33.5522 27.7082 32.7552 28.5052C31.9582 29.3022 30.8772 29.75 29.75 29.75H4.25C3.12283 29.75 2.04183 29.3022 1.2448 28.5052C0.447767 27.7082 0 26.6272 0 25.5V8.5ZM4.25 6.375C3.68641 6.375 3.14591 6.59888 2.7474 6.9974C2.34888 7.39591 2.125 7.93641 2.125 8.5V8.96113L17 17.8861L31.875 8.96113V8.5C31.875 7.93641 31.6511 7.39591 31.2526 6.9974C30.8541 6.59888 30.3136 6.375 29.75 6.375H4.25ZM31.875 11.4389L21.8705 17.442L31.875 23.5981V11.4389ZM31.8027 26.0504L19.8178 18.6745L17 20.3639L14.1822 18.6745L2.19725 26.0483C2.318 26.5004 2.58467 26.9001 2.95585 27.1852C3.32703 27.4703 3.78196 27.6249 4.25 27.625H29.75C30.2178 27.6251 30.6725 27.4708 31.0436 27.1861C31.4148 26.9014 31.6816 26.5022 31.8027 26.0504ZM2.125 23.5981L12.1295 17.442L2.125 11.4389V23.5981Z" fill="white"/>
</svg>
