<svg width="18" height="18" viewBox="0 0 18 18" fill="none" xmlns="http://www.w3.org/2000/svg">
<path d="M7.0425 12.6H10.935C11.145 12.6 11.2988 12.5288 11.3963 12.3863C11.4938 12.2438 11.5425 12.0675 11.5425 11.8575V10.215H10.1925V11.25H7.785V6.75H10.1925V7.8075H11.5425V6.165C11.5425 5.955 11.4938 5.775 11.3963 5.625C11.2988 5.475 11.145 5.4 10.935 5.4H7.0425C6.8325 5.4 6.67875 5.475 6.58125 5.625C6.48375 5.775 6.435 5.955 6.435 6.165V11.8575C6.435 12.0675 6.48375 12.2438 6.58125 12.3863C6.67875 12.5288 6.8325 12.6 7.0425 12.6ZM9 18C7.77 18 6.6075 17.7638 5.5125 17.2913C4.4175 16.8188 3.46125 16.1737 2.64375 15.3563C1.82625 14.5388 1.18125 13.5825 0.70875 12.4875C0.23625 11.3925 0 10.23 0 9C0 7.755 0.23625 6.585 0.70875 5.49C1.18125 4.395 1.82625 3.4425 2.64375 2.6325C3.46125 1.8225 4.4175 1.18125 5.5125 0.70875C6.6075 0.23625 7.77 0 9 0C10.245 0 11.415 0.23625 12.51 0.70875C13.605 1.18125 14.5575 1.8225 15.3675 2.6325C16.1775 3.4425 16.8188 4.395 17.2913 5.49C17.7638 6.585 18 7.755 18 9C18 10.23 17.7638 11.3925 17.2913 12.4875C16.8188 13.5825 16.1775 14.5388 15.3675 15.3563C14.5575 16.1737 13.605 16.8188 12.51 17.2913C11.415 17.7638 10.245 18 9 18ZM9 16.65C11.13 16.65 12.9375 15.9038 14.4225 14.4113C15.9075 12.9187 16.65 11.115 16.65 9C16.65 6.87 15.9075 5.0625 14.4225 3.5775C12.9375 2.0925 11.13 1.35 9 1.35C6.885 1.35 5.08125 2.0925 3.58875 3.5775C2.09625 5.0625 1.35 6.87 1.35 9C1.35 11.115 2.09625 12.9187 3.58875 14.4113C5.08125 15.9038 6.885 16.65 9 16.65Z" fill="#D0E2FD"/>
</svg>
