<svg width="172" height="172" viewBox="0 0 172 172" fill="none" xmlns="http://www.w3.org/2000/svg">
<path d="M59.7133 21.4782H39.212C34.147 21.4782 30.6836 26.5938 32.5647 31.2965L55.4746 88.5715C56.5619 91.2896 59.1944 93.0719 62.1219 93.0719H109.703C112.63 93.0719 115.263 91.2896 116.35 88.5715L139.26 31.2965C141.141 26.5938 137.678 21.4782 132.613 21.4782H112.111C109.247 21.4782 106.659 23.185 105.531 25.8174L87.2284 68.5229C86.7325 69.68 85.0921 69.68 84.5962 68.5229L66.2938 25.8174C65.1656 23.185 62.5773 21.4782 59.7133 21.4782Z" fill="url(#paint0_linear_107_638)"/>
<g filter="url(#filter0_bi_107_638)">
<circle cx="85.9122" cy="107.39" r="50.1156" fill="#F1F1F1" fill-opacity="0.1"/>
<circle cx="85.9122" cy="107.39" r="50.1156" fill="url(#paint1_linear_107_638)" fill-opacity="0.2"/>
<circle cx="85.9122" cy="107.39" r="49.3996" stroke="url(#paint2_linear_107_638)" stroke-opacity="0.1" stroke-width="1.43187"/>
</g>
<g filter="url(#filter1_i_107_638)">
<path d="M83.8692 77.8805C84.5121 75.9017 87.3116 75.9017 87.9546 77.8805L93.9488 96.3288H113.346C115.427 96.3288 116.292 98.9912 114.609 100.214L98.9158 111.616L104.91 130.064C105.553 132.043 103.288 133.688 101.605 132.465L85.9119 121.064L70.2189 132.465C68.5356 133.688 66.2708 132.043 66.9137 130.064L72.9079 111.616L57.2149 100.214C55.5316 98.9912 56.3967 96.3288 58.4773 96.3288H77.875L83.8692 77.8805Z" fill="white" fill-opacity="0.16"/>
</g>
<defs>
<filter id="filter0_bi_107_638" x="14.3185" y="35.7968" width="143.187" height="143.187" filterUnits="userSpaceOnUse" color-interpolation-filters="sRGB">
<feFlood flood-opacity="0" result="BackgroundImageFix"/>
<feGaussianBlur in="BackgroundImageFix" stdDeviation="10.739"/>
<feComposite in2="SourceAlpha" operator="in" result="effect1_backgroundBlur_107_638"/>
<feBlend mode="normal" in="SourceGraphic" in2="effect1_backgroundBlur_107_638" result="shape"/>
<feColorMatrix in="SourceAlpha" type="matrix" values="0 0 0 0 0 0 0 0 0 0 0 0 0 0 0 0 0 0 127 0" result="hardAlpha"/>
<feOffset dy="3.57968"/>
<feGaussianBlur stdDeviation="7.15937"/>
<feComposite in2="hardAlpha" operator="arithmetic" k2="-1" k3="1"/>
<feColorMatrix type="matrix" values="0 0 0 0 1 0 0 0 0 1 0 0 0 0 1 0 0 0 0.4 0"/>
<feBlend mode="normal" in2="shape" result="effect2_innerShadow_107_638"/>
</filter>
<filter id="filter1_i_107_638" x="56.3254" y="76.3964" width="59.1729" height="60.0686" filterUnits="userSpaceOnUse" color-interpolation-filters="sRGB">
<feFlood flood-opacity="0" result="BackgroundImageFix"/>
<feBlend mode="normal" in="SourceGraphic" in2="BackgroundImageFix" result="shape"/>
<feColorMatrix in="SourceAlpha" type="matrix" values="0 0 0 0 0 0 0 0 0 0 0 0 0 0 0 0 0 0 127 0" result="hardAlpha"/>
<feOffset dy="3.57968"/>
<feGaussianBlur stdDeviation="1.78984"/>
<feComposite in2="hardAlpha" operator="arithmetic" k2="-1" k3="1"/>
<feColorMatrix type="matrix" values="0 0 0 0 1 0 0 0 0 1 0 0 0 0 1 0 0 0 0.4 0"/>
<feBlend mode="normal" in2="shape" result="effect1_innerShadow_107_638"/>
</filter>
<linearGradient id="paint0_linear_107_638" x1="85.9123" y1="21.4782" x2="85.9123" y2="93.0719" gradientUnits="userSpaceOnUse">
<stop stop-color="#E98920"/>
<stop offset="1" stop-color="#F4AE61"/>
</linearGradient>
<linearGradient id="paint1_linear_107_638" x1="35.7966" y1="57.2749" x2="153.866" y2="87.2549" gradientUnits="userSpaceOnUse">
<stop stop-color="#FFD482"/>
<stop offset="1" stop-color="#E98920"/>
</linearGradient>
<linearGradient id="paint2_linear_107_638" x1="38.9289" y1="61.8309" x2="136.028" y2="61.8309" gradientUnits="userSpaceOnUse">
<stop stop-color="#FFC282"/>
<stop offset="1" stop-color="#FF4980"/>
</linearGradient>
</defs>
</svg>
