<svg width="172" height="172" viewBox="0 0 172 172" fill="none" xmlns="http://www.w3.org/2000/svg">
<circle cx="85.9121" cy="128.869" r="28.6375" fill="url(#paint0_linear_107_633)"/>
<g filter="url(#filter0_bi_107_633)">
<mask id="path-3-inside-1_107_633" fill="white">
<path fill-rule="evenodd" clip-rule="evenodd" d="M85.9126 75.5711C100.85 75.5711 112.959 63.462 112.959 48.5246C112.959 33.5872 100.85 21.4781 85.9126 21.4781C70.9752 21.4781 58.8661 33.5872 58.8661 48.5246C58.8661 63.462 70.9752 75.5711 85.9126 75.5711ZM140.005 122.902C140.005 139.609 109.954 143.187 85.9122 143.187C61.8709 143.187 31.8192 139.609 31.8192 122.902C31.8192 106.196 56.0375 82.3326 85.9122 82.3326C115.787 82.3326 140.005 106.196 140.005 122.902Z"/>
</mask>
<path fill-rule="evenodd" clip-rule="evenodd" d="M85.9126 75.5711C100.85 75.5711 112.959 63.462 112.959 48.5246C112.959 33.5872 100.85 21.4781 85.9126 21.4781C70.9752 21.4781 58.8661 33.5872 58.8661 48.5246C58.8661 63.462 70.9752 75.5711 85.9126 75.5711ZM140.005 122.902C140.005 139.609 109.954 143.187 85.9122 143.187C61.8709 143.187 31.8192 139.609 31.8192 122.902C31.8192 106.196 56.0375 82.3326 85.9122 82.3326C115.787 82.3326 140.005 106.196 140.005 122.902Z" fill="#F1F1F1" fill-opacity="0.1"/>
<path fill-rule="evenodd" clip-rule="evenodd" d="M85.9126 75.5711C100.85 75.5711 112.959 63.462 112.959 48.5246C112.959 33.5872 100.85 21.4781 85.9126 21.4781C70.9752 21.4781 58.8661 33.5872 58.8661 48.5246C58.8661 63.462 70.9752 75.5711 85.9126 75.5711ZM140.005 122.902C140.005 139.609 109.954 143.187 85.9122 143.187C61.8709 143.187 31.8192 139.609 31.8192 122.902C31.8192 106.196 56.0375 82.3326 85.9122 82.3326C115.787 82.3326 140.005 106.196 140.005 122.902Z" fill="url(#paint1_linear_107_633)" fill-opacity="0.2"/>
<path d="M111.527 48.5246C111.527 62.6712 100.059 74.1392 85.9126 74.1392V77.003C101.641 77.003 114.391 64.2528 114.391 48.5246H111.527ZM85.9126 22.91C100.059 22.91 111.527 34.378 111.527 48.5246H114.391C114.391 32.7964 101.641 20.0462 85.9126 20.0462V22.91ZM60.298 48.5246C60.298 34.378 71.766 22.91 85.9126 22.91V20.0462C70.1844 20.0462 57.4342 32.7964 57.4342 48.5246H60.298ZM85.9126 74.1392C71.766 74.1392 60.298 62.6712 60.298 48.5246H57.4342C57.4342 64.2528 70.1844 77.003 85.9126 77.003V74.1392ZM85.9122 144.619C97.9713 144.619 111.653 143.725 122.365 140.687C127.717 139.169 132.443 137.085 135.855 134.216C139.309 131.312 141.437 127.577 141.437 122.902H138.573C138.573 126.581 136.945 129.558 134.012 132.024C131.039 134.524 126.749 136.467 121.584 137.932C111.259 140.86 97.8945 141.755 85.9122 141.755V144.619ZM30.3873 122.902C30.3873 127.577 32.515 131.312 35.9689 134.216C39.3814 137.085 44.1074 139.169 49.4595 140.687C60.1711 143.725 73.8532 144.619 85.9122 144.619V141.755C73.9299 141.755 60.5655 140.86 50.2409 137.932C45.0749 136.467 40.7854 134.524 37.8119 132.024C34.8799 129.558 33.2511 126.581 33.2511 122.902H30.3873ZM85.9122 80.9008C70.5956 80.9008 56.759 87.0141 46.7529 95.2469C36.8074 103.43 30.3873 113.938 30.3873 122.902H33.2511C33.2511 115.161 38.9402 105.384 48.5724 97.4584C58.1442 89.5829 71.3541 83.7645 85.9122 83.7645V80.9008ZM141.437 122.902C141.437 113.938 135.017 103.43 125.071 95.2469C115.065 87.0141 101.229 80.9008 85.9122 80.9008V83.7645C100.47 83.7645 113.68 89.5829 123.252 97.4584C132.884 105.384 138.573 115.161 138.573 122.902H141.437Z" fill="url(#paint2_linear_107_633)" fill-opacity="0.1" mask="url(#path-3-inside-1_107_633)"/>
</g>
<defs>
<filter id="filter0_bi_107_633" x="10.3411" y="-9.53674e-06" width="151.142" height="164.665" filterUnits="userSpaceOnUse" color-interpolation-filters="sRGB">
<feFlood flood-opacity="0" result="BackgroundImageFix"/>
<feGaussianBlur in="BackgroundImageFix" stdDeviation="10.739"/>
<feComposite in2="SourceAlpha" operator="in" result="effect1_backgroundBlur_107_633"/>
<feBlend mode="normal" in="SourceGraphic" in2="effect1_backgroundBlur_107_633" result="shape"/>
<feColorMatrix in="SourceAlpha" type="matrix" values="0 0 0 0 0 0 0 0 0 0 0 0 0 0 0 0 0 0 127 0" result="hardAlpha"/>
<feOffset dy="3.57968"/>
<feGaussianBlur stdDeviation="7.15937"/>
<feComposite in2="hardAlpha" operator="arithmetic" k2="-1" k3="1"/>
<feColorMatrix type="matrix" values="0 0 0 0 1 0 0 0 0 1 0 0 0 0 1 0 0 0 0.4 0"/>
<feBlend mode="normal" in2="shape" result="effect2_innerShadow_107_633"/>
</filter>
<linearGradient id="paint0_linear_107_633" x1="85.9121" y1="100.231" x2="85.9121" y2="157.506" gradientUnits="userSpaceOnUse">
<stop stop-color="#E98920"/>
<stop offset="1" stop-color="#F4AE61"/>
</linearGradient>
<linearGradient id="paint1_linear_107_633" x1="31.8192" y1="21.4781" x2="160.9" y2="50.6123" gradientUnits="userSpaceOnUse">
<stop stop-color="#FFD482"/>
<stop offset="1" stop-color="#E98920"/>
</linearGradient>
<linearGradient id="paint2_linear_107_633" x1="35.2" y1="27.0103" x2="140.005" y2="27.0103" gradientUnits="userSpaceOnUse">
<stop stop-color="#FFC282"/>
<stop offset="1" stop-color="#FF4980"/>
</linearGradient>
</defs>
</svg>
