<svg width="48" height="48" viewBox="0 0 48 48" fill="none" xmlns="http://www.w3.org/2000/svg">
<path d="M30.2793 47.0112C29.6209 47.6704 28.8254 48 27.8928 48C26.9601 48 26.1646 47.6704 25.5062 47.0112L4.93267 26.412C4.56692 26.0458 4.32003 25.6613 4.19202 25.2584C4.06401 24.8556 4 24.4345 4 23.995V7.29588C4 6.34374 4.31089 5.55639 4.93267 4.93383C5.55445 4.31128 6.34081 4 7.29177 4H23.9701C24.409 4 24.8479 4.06409 25.2868 4.19226C25.7257 4.32043 26.128 4.56762 26.4938 4.93383L46.9576 25.4232C47.6525 26.119 48 26.9338 48 27.8677C48 28.8015 47.6525 29.6163 46.9576 30.3121L30.2793 47.0112ZM28.0299 44.7591L44.7082 28.0599L23.9701 7.29588H7.29177V23.995L28.0299 44.7591ZM13.0524 15.8652C13.8204 15.8652 14.4879 15.5814 15.0549 15.0137C15.6218 14.4461 15.9052 13.7778 15.9052 13.0087C15.9052 12.2397 15.6218 11.5714 15.0549 11.0037C14.4879 10.4361 13.8204 10.1523 13.0524 10.1523C12.2843 10.1523 11.6168 10.4361 11.0499 11.0037C10.483 11.5714 10.1995 12.2397 10.1995 13.0087C10.1995 13.7778 10.483 14.4461 11.0499 15.0137C11.6168 15.5814 12.2843 15.8652 13.0524 15.8652Z" fill="#FFE5C8"/>
</svg>
