<svg width="31" height="31" viewBox="0 0 31 31" fill="none" xmlns="http://www.w3.org/2000/svg">
<path d="M26.3519 4.50672C24.9307 3.07234 23.2383 1.93516 21.3731 1.16144C19.508 0.387723 17.5076 -0.00706078 15.4884 9.55779e-05C7.02731 9.55779e-05 0.13175 6.89372 0.124 15.3567C0.124 18.0673 0.833125 20.7042 2.17194 23.0389L0 31.0001L8.14525 28.865C10.3986 30.0912 12.923 30.734 15.4884 30.7347H15.4961C23.9591 30.7347 30.8528 23.841 30.8605 15.3703C30.8624 13.3515 30.4649 11.3523 29.6908 9.4878C28.9167 7.62333 27.7832 5.93046 26.3519 4.50672ZM15.4884 28.1345C13.2002 28.1353 10.954 27.5196 8.98613 26.352L8.52112 26.073L3.689 27.3402L4.97937 22.6262L4.67713 22.1399C3.398 20.1062 2.7215 17.7515 2.72606 15.349C2.72606 8.3236 8.45525 2.59247 15.4961 2.59247C17.1735 2.58946 18.8349 2.9185 20.3845 3.56062C21.9341 4.20274 23.3413 5.14524 24.5249 6.33378C25.7126 7.51769 26.6542 8.92504 27.2954 10.4747C27.9365 12.0243 28.2645 13.6855 28.2604 15.3625C28.2526 22.4131 22.5234 28.1345 15.4884 28.1345ZM22.4924 18.5749C22.1108 18.3831 20.2256 17.455 19.871 17.3233C19.5184 17.1973 19.2607 17.1315 19.0088 17.5151C18.7511 17.8968 18.0149 18.7667 17.794 19.0167C17.5731 19.2743 17.3445 19.3034 16.9609 19.1135C16.5792 18.9198 15.3411 18.5168 13.8764 17.2051C12.7333 16.1879 11.9679 14.9285 11.7393 14.5468C11.5184 14.1632 11.718 13.9578 11.9098 13.766C12.0784 13.5955 12.2915 13.3165 12.4833 13.0957C12.6771 12.8748 12.741 12.712 12.8669 12.4563C12.9929 12.1967 12.9328 11.9758 12.8379 11.784C12.741 11.5922 11.9757 9.69922 11.6521 8.93585C11.3421 8.18216 11.0263 8.28678 10.7899 8.27709C10.5691 8.26353 10.3114 8.26353 10.0537 8.26353C9.85909 8.26837 9.6676 8.31338 9.49122 8.39573C9.31484 8.47808 9.15739 8.59601 9.02875 8.7421C8.67612 9.12572 7.68994 10.0538 7.68994 11.9467C7.68994 13.8397 9.06556 15.659 9.25931 15.9167C9.44919 16.1743 11.9602 20.0474 15.8139 21.7137C16.7245 22.1108 17.4414 22.3453 18.0013 22.5235C18.9216 22.818 19.7528 22.7735 20.4154 22.6785C21.1517 22.5662 22.6843 21.7485 23.0078 20.8515C23.3256 19.9525 23.3256 19.1852 23.2287 19.0244C23.1338 18.8617 22.8761 18.7667 22.4924 18.5749Z" fill="white"/>
</svg>
